:SAMPLES-PER-SECOND 30
:FULLY-SPECIFIED
:DEGREES
78
root  6.71653 38.0065 -13.7664 -163.362 79.0144 -157.191
RightUpLeg  -19.3135 -15.4329 10.3851
RightLeg  31.3802 -4.29103 -3.08389
RightFoot  -6.65739 0.38121 -10.3557
RightToes  0.000482159 0.542163 -0.142577
Spine  12.1625 -3.68323 10.0921
Spine1  9.44084 -3.28329 5.38054
HEad  12.6764 -7.39757 -2.16767
LeftShoulder1  7.07952 -10.895 -42.7242
LeftArm  -2.44602 11.3037 -32.6155
LeftForeArm  38.9759 -30.675 -4.54686
LeftHand  -0.25398 0.0180481 5.50724
RightShoulder  4.03964 7.06419 32.2813
RightArm  -5.94347 -14.2001 39.2775
RightForeArm  0.883881 23.9986 5.06415
RightHand  -1.15622 2.05859 -18.1382
LeftUpLeg  -6.1307 5.70406 7.34909
LeftLeg  69.3662 0.624433 2.63228
LeftFoot  15.8687 1.4397 -6.32627
LeftToes  1.06246e-005 4.65855e-005 -8.18503e-006
79
root  8.40174 38.3966 -13.9874 -164.5 80.5108 -158.072
RightUpLeg  -15.165 -15.0181 8.96109
RightLeg  30.32 -3.65205 -2.57285
RightFoot  -8.85856 0.146039 -9.48123
RightToes  0.000482159 0.542163 -0.142577
Spine  11.763 -2.9336 9.9784
Spine1  9.67615 -2.27199 4.44786
HEad  14.0423 -7.8914 -2.11636
LeftShoulder1  6.98204 -10.6767 -42.7868
LeftArm  -2.42879 12.5903 -32.4818
LeftForeArm  39.8046 -30.1673 -4.38915
LeftHand  -0.25398 0.0180481 5.50724
RightShoulder  4.01221 7.02496 32.1629
RightArm  -4.64144 -13.9273 39.7579
RightForeArm  1.34029 27.0215 5.74829
RightHand  -1.20237 2.17745 -18.5492
LeftUpLeg  -11.2445 5.19101 6.62952
LeftLeg  70.8531 0.876305 3.69712
LeftFoot  11.8443 0.702878 -3.80367
LeftToes  1.06246e-005 4.65855e-005 -8.18503e-006
80
root  10.0715 38.7095 -14.2003 -165.655 82.0653 -159.269
RightUpLeg  -11.3257 -15.0078 7.5331
RightLeg  29.0174 -2.56567 -1.76241
RightFoot  -10.7415 -0.0257501 -9.02789
RightToes  0.000482159 0.542163 -0.142577
Spine  11.0542 -2.186 9.80163
Spine1  9.73634 -1.36193 3.67693
HEad  15.453 -7.88857 -2.59484
LeftShoulder1  6.89283 -10.4943 -42.7892
LeftArm  -3.07147 14.4477 -32.3029
LeftForeArm  39.114 -29.5496 -4.28625
LeftHand  -0.25398 0.0180481 5.50724
RightShoulder  3.98822 7.01828 31.9586
RightArm  -2.92031 -13.8277 40.1105
RightForeArm  2.69968 30.3125 6.47251
RightHand  -1.11076 1.66272 -18.3612
LeftUpLeg  -15.7427 5.21649 5.96864
LeftLeg  69.0296 1.12786 4.06733
LeftFoot  9.15896 0.313034 -2.03882
LeftToes  1.06246e-005 4.65855e-005 -8.18503e-006
81
root  11.7403 39.052 -14.4149 -167.43 83.6879 -161.157
RightUpLeg  -7.2093 -14.4068 5.86015
RightLeg  26.7985 -1.79712 -0.770548
RightFoot  -11.9812 -0.129295 -8.72286
RightToes  0.000482159 0.542163 -0.142577
Spine  10.2319 -1.4535 9.71363
Spine1  9.64127 -0.452154 2.36568
HEad  16.7259 -7.59116 -3.18017
LeftShoulder1  6.86785 -10.4616 -42.7302
LeftArm  -3.59187 16.4964 -31.8887
LeftForeArm  37.2583 -28.6655 -4.1855
LeftHand  -0.25398 0.0180481 5.50724
RightShoulder  4.01341 7.07069 32.0088
RightArm  -1.19608 -13.8631 40.1086
RightForeArm  4.02352 33.6687 7.27024
RightHand  -1.04974 1.27902 -18.3274
LeftUpLeg  -19.1144 5.95543 5.24122
LeftLeg  64.008 1.6242 4.26491
LeftFoot  5.96434 0.0665876 -0.677386
LeftToes  1.06246e-005 4.65855e-005 -8.18503e-006
82
root  13.3704 39.3354 -14.6298 -170.328 85.403 -164.069
RightUpLeg  -2.98181 -12.4953 4.10711
RightLeg  24.2753 -2.00582 0.0726333
RightFoot  -13.198 -0.218208 -7.99413
RightToes  0.000482159 0.542163 -0.142577
Spine  9.54258 -0.763626 9.60097
Spine1  9.64068 0.435927 0.775683
HEad  17.7142 -7.04347 -3.67731
LeftShoulder1  6.83323 -10.4191 -42.6387
LeftArm  -3.83332 18.3263 -31.3927
LeftForeArm  35.3424 -27.4353 -4.01545
LeftHand  -0.25398 0.0180481 5.50724
RightShoulder  4.08343 7.16214 32.3413
RightArm  0.615733 -13.5704 39.7729
RightForeArm  4.8086 36.3802 7.98347
RightHand  -1.07591 1.34967 -18.585
LeftUpLeg  -21.0436 7.43331 4.4664
LeftLeg  55.7711 2.45554 4.36731
LeftFoot  2.56744 0.0266059 -0.371102
LeftToes  1.06246e-005 4.65855e-005 -8.18503e-006
